<mxfile host="app.diagrams.net" modified="2023-06-02T18:14:48.015Z" agent="Mozilla/5.0 (Windows NT 10.0; Win64; x64) AppleWebKit/537.36 (KHTML, like Gecko) Chrome/113.0.0.0 Safari/537.36" etag="gJFHlrYMo9GYtBMSwgvb" version="21.3.7" type="device">
  <diagram name="Página-1" id="3TDImCewVFmGeQhzMnVD">
    <mxGraphModel dx="1195" dy="657" grid="1" gridSize="10" guides="1" tooltips="1" connect="1" arrows="1" fold="1" page="1" pageScale="1" pageWidth="827" pageHeight="1169" math="0" shadow="0">
      <root>
        <mxCell id="0" />
        <mxCell id="1" parent="0" />
        <mxCell id="JZC71wfWjM9hJbuIRrXw-37" value="" style="rounded=0;whiteSpace=wrap;html=1;strokeColor=none;" vertex="1" parent="1">
          <mxGeometry x="20" y="90" width="770" height="480" as="geometry" />
        </mxCell>
        <mxCell id="JZC71wfWjM9hJbuIRrXw-1" value="Mercado" style="shape=umlActor;verticalLabelPosition=bottom;verticalAlign=top;html=1;outlineConnect=0;" vertex="1" parent="1">
          <mxGeometry x="50" y="300" width="30" height="60" as="geometry" />
        </mxCell>
        <mxCell id="JZC71wfWjM9hJbuIRrXw-3" value="Ong" style="shape=umlActor;verticalLabelPosition=bottom;verticalAlign=top;html=1;outlineConnect=0;" vertex="1" parent="1">
          <mxGeometry x="720" y="300" width="30" height="60" as="geometry" />
        </mxCell>
        <mxCell id="JZC71wfWjM9hJbuIRrXw-12" value="" style="group" vertex="1" connectable="0" parent="1">
          <mxGeometry x="100" y="140" width="610" height="380" as="geometry" />
        </mxCell>
        <mxCell id="JZC71wfWjM9hJbuIRrXw-4" value="" style="endArrow=none;html=1;rounded=0;" edge="1" parent="JZC71wfWjM9hJbuIRrXw-12">
          <mxGeometry width="50" height="50" relative="1" as="geometry">
            <mxPoint y="380.0000000000001" as="sourcePoint" />
            <mxPoint as="targetPoint" />
          </mxGeometry>
        </mxCell>
        <mxCell id="JZC71wfWjM9hJbuIRrXw-5" value="" style="endArrow=none;html=1;rounded=0;" edge="1" parent="JZC71wfWjM9hJbuIRrXw-12">
          <mxGeometry width="50" height="50" relative="1" as="geometry">
            <mxPoint x="610" y="380.0000000000001" as="sourcePoint" />
            <mxPoint x="610" as="targetPoint" />
          </mxGeometry>
        </mxCell>
        <mxCell id="JZC71wfWjM9hJbuIRrXw-6" value="" style="endArrow=none;html=1;rounded=0;" edge="1" parent="JZC71wfWjM9hJbuIRrXw-12">
          <mxGeometry width="50" height="50" relative="1" as="geometry">
            <mxPoint as="sourcePoint" />
            <mxPoint x="610" as="targetPoint" />
          </mxGeometry>
        </mxCell>
        <mxCell id="JZC71wfWjM9hJbuIRrXw-7" value="" style="endArrow=none;html=1;rounded=0;" edge="1" parent="JZC71wfWjM9hJbuIRrXw-12">
          <mxGeometry width="50" height="50" relative="1" as="geometry">
            <mxPoint y="380.0000000000001" as="sourcePoint" />
            <mxPoint x="610" y="380.0000000000001" as="targetPoint" />
          </mxGeometry>
        </mxCell>
        <mxCell id="JZC71wfWjM9hJbuIRrXw-8" value="Powered by: CloudHub" style="text;html=1;align=center;verticalAlign=middle;resizable=0;points=[];autosize=1;strokeColor=none;fillColor=none;" vertex="1" parent="JZC71wfWjM9hJbuIRrXw-12">
          <mxGeometry x="460" width="150" height="30" as="geometry" />
        </mxCell>
        <mxCell id="JZC71wfWjM9hJbuIRrXw-20" value="Cadastro" style="ellipse;whiteSpace=wrap;html=1;" vertex="1" parent="JZC71wfWjM9hJbuIRrXw-12">
          <mxGeometry x="90" y="29.996086956521772" width="140" height="57.82608695652174" as="geometry" />
        </mxCell>
        <mxCell id="JZC71wfWjM9hJbuIRrXw-21" value="Doação" style="ellipse;whiteSpace=wrap;html=1;" vertex="1" parent="JZC71wfWjM9hJbuIRrXw-12">
          <mxGeometry x="230" y="161.0869565217391" width="140" height="57.82608695652174" as="geometry" />
        </mxCell>
        <mxCell id="JZC71wfWjM9hJbuIRrXw-26" value="Valida Usuário" style="ellipse;whiteSpace=wrap;html=1;" vertex="1" parent="JZC71wfWjM9hJbuIRrXw-12">
          <mxGeometry x="260" y="289.13043478260863" width="140" height="57.82608695652174" as="geometry" />
        </mxCell>
        <mxCell id="JZC71wfWjM9hJbuIRrXw-27" value="" style="endArrow=open;endSize=12;dashed=1;html=1;rounded=0;exitX=0.5;exitY=1;exitDx=0;exitDy=0;entryX=0;entryY=0;entryDx=0;entryDy=0;" edge="1" parent="JZC71wfWjM9hJbuIRrXw-12" source="JZC71wfWjM9hJbuIRrXw-20" target="JZC71wfWjM9hJbuIRrXw-26">
          <mxGeometry width="160" relative="1" as="geometry">
            <mxPoint x="170" y="446.08695652173907" as="sourcePoint" />
            <mxPoint x="330" y="446.08695652173907" as="targetPoint" />
          </mxGeometry>
        </mxCell>
        <mxCell id="JZC71wfWjM9hJbuIRrXw-35" value="&amp;lt;&amp;lt;Include&amp;gt;&amp;gt;" style="edgeLabel;html=1;align=center;verticalAlign=middle;resizable=0;points=[];" vertex="1" connectable="0" parent="JZC71wfWjM9hJbuIRrXw-27">
          <mxGeometry x="-0.3235" y="-2" relative="1" as="geometry">
            <mxPoint as="offset" />
          </mxGeometry>
        </mxCell>
        <mxCell id="JZC71wfWjM9hJbuIRrXw-28" value="" style="endArrow=open;endSize=12;dashed=1;html=1;rounded=0;exitX=0.5;exitY=1;exitDx=0;exitDy=0;entryX=0.5;entryY=0;entryDx=0;entryDy=0;" edge="1" parent="JZC71wfWjM9hJbuIRrXw-12" source="JZC71wfWjM9hJbuIRrXw-21" target="JZC71wfWjM9hJbuIRrXw-26">
          <mxGeometry width="160" relative="1" as="geometry">
            <mxPoint x="450" y="454.3478260869565" as="sourcePoint" />
            <mxPoint x="610" y="454.3478260869565" as="targetPoint" />
          </mxGeometry>
        </mxCell>
        <mxCell id="JZC71wfWjM9hJbuIRrXw-36" value="&amp;lt;&amp;lt;Include&amp;gt;&amp;gt;" style="edgeLabel;html=1;align=center;verticalAlign=middle;resizable=0;points=[];" vertex="1" connectable="0" parent="JZC71wfWjM9hJbuIRrXw-28">
          <mxGeometry x="-0.1421" y="1" relative="1" as="geometry">
            <mxPoint as="offset" />
          </mxGeometry>
        </mxCell>
        <mxCell id="JZC71wfWjM9hJbuIRrXw-30" value="Monitora Doações" style="ellipse;whiteSpace=wrap;html=1;" vertex="1" parent="JZC71wfWjM9hJbuIRrXw-12">
          <mxGeometry x="400" y="231.30434782608697" width="140" height="57.82608695652174" as="geometry" />
        </mxCell>
        <mxCell id="JZC71wfWjM9hJbuIRrXw-14" value="" style="endArrow=none;html=1;rounded=0;entryX=0;entryY=0.5;entryDx=0;entryDy=0;" edge="1" parent="1" source="JZC71wfWjM9hJbuIRrXw-1" target="JZC71wfWjM9hJbuIRrXw-20">
          <mxGeometry width="50" height="50" relative="1" as="geometry">
            <mxPoint x="390" y="430" as="sourcePoint" />
            <mxPoint x="160" y="280" as="targetPoint" />
          </mxGeometry>
        </mxCell>
        <mxCell id="JZC71wfWjM9hJbuIRrXw-23" value="" style="endArrow=none;html=1;rounded=0;entryX=0;entryY=0.5;entryDx=0;entryDy=0;" edge="1" parent="1" source="JZC71wfWjM9hJbuIRrXw-1" target="JZC71wfWjM9hJbuIRrXw-21">
          <mxGeometry width="50" height="50" relative="1" as="geometry">
            <mxPoint x="80" y="200" as="sourcePoint" />
            <mxPoint x="370" y="200" as="targetPoint" />
          </mxGeometry>
        </mxCell>
        <mxCell id="JZC71wfWjM9hJbuIRrXw-25" value="" style="endArrow=none;html=1;rounded=0;exitX=1;exitY=0.5;exitDx=0;exitDy=0;" edge="1" parent="1" source="JZC71wfWjM9hJbuIRrXw-21" target="JZC71wfWjM9hJbuIRrXw-3">
          <mxGeometry width="50" height="50" relative="1" as="geometry">
            <mxPoint x="520" y="329.5" as="sourcePoint" />
            <mxPoint x="770" y="329.5" as="targetPoint" />
          </mxGeometry>
        </mxCell>
        <mxCell id="JZC71wfWjM9hJbuIRrXw-29" value="" style="endArrow=none;html=1;rounded=0;exitX=1;exitY=0.5;exitDx=0;exitDy=0;" edge="1" parent="1" source="JZC71wfWjM9hJbuIRrXw-20" target="JZC71wfWjM9hJbuIRrXw-3">
          <mxGeometry width="50" height="50" relative="1" as="geometry">
            <mxPoint x="695" y="262" as="sourcePoint" />
            <mxPoint x="775" y="190" as="targetPoint" />
          </mxGeometry>
        </mxCell>
        <mxCell id="JZC71wfWjM9hJbuIRrXw-31" value="" style="endArrow=none;html=1;rounded=0;exitX=0.625;exitY=0.007;exitDx=0;exitDy=0;exitPerimeter=0;" edge="1" parent="1" source="JZC71wfWjM9hJbuIRrXw-30" target="JZC71wfWjM9hJbuIRrXw-3">
          <mxGeometry width="50" height="50" relative="1" as="geometry">
            <mxPoint x="450" y="430" as="sourcePoint" />
            <mxPoint x="560" y="320" as="targetPoint" />
          </mxGeometry>
        </mxCell>
      </root>
    </mxGraphModel>
  </diagram>
</mxfile>
